<svg id="Icons" height="512" viewBox="0 0 74 74" width="512" xmlns="http://www.w3.org/2000/svg"><path d="m62 72h-50a1 1 0 0 1 -1-1v-68a1 1 0 0 1 1-1h36.67a1 1 0 0 1 .707.293l13.33 13.34a1 1 0 0 1 .293.707v54.66a1 1 0 0 1 -1 1zm-49-2h48v-53.246l-12.744-12.754h-35.256z"/><path d="m62 17.7h-13.33a1 1 0 0 1 -1-1v-13.7a1 1 0 0 1 2 0v12.7h12.33a1 1 0 0 1 0 2z"/><path d="m54.5 59.3h-35a1 1 0 0 1 0-2h35a1 1 0 0 1 0 2z"/><path d="m54.5 49h-35a1 1 0 0 1 0-2h35a1 1 0 0 1 0 2z"/><path d="m54.5 38.7h-35a1 1 0 0 1 0-2h35a1 1 0 0 1 0 2z"/><path d="m54.5 28.4h-35a1 1 0 0 1 0-2h35a1 1 0 0 1 0 2z"/></svg>